<?xml version="1.0" encoding="UTF-8"?>
<svg id="Layer_2" data-name="Layer 2" xmlns="http://www.w3.org/2000/svg" viewBox="0 0 71.96 24.16">
  <defs>
    <style>
      .cls-1 {
        fill: #fff;
        stroke-width: 0px;
      }
    </style>
  </defs>
  <g id="Layer_1-2" data-name="Layer 1">
    <g>
      <g>
        <path class="cls-1" d="m5.92,9.51v3.77l.03.74c.03.34.12.59.26.74.14.15.38.25.71.29l.82.06v.26H0v-.26h.5c.24-.03.46-.06.68-.09.21-.03.38-.11.51-.24.12-.13.2-.37.23-.72l.03-.74v-7.64l-.03-.74c-.03-.34-.11-.59-.24-.73-.13-.14-.31-.23-.55-.26-.24-.03-.44-.05-.61-.06-.17,0-.33-.01-.48-.02v-.26l7.21-.02c1,0,1.81.04,2.43.13.62.09,1.13.26,1.52.52.39.26.7.58.93.96.23.38.35.82.35,1.33,0,.38-.07.75-.2,1.13-.13.38-.34.7-.62.97-.28.27-.63.48-1.04.63-.41.15-1.07.23-1.97.23v.11c.55.12,1.01.23,1.38.34.37.11.71.26,1.01.47.3.21.57.51.81.91s.44.85.59,1.33c.15.48.28.82.4,1.02.12.2.28.3.5.3.28,0,.46-.18.56-.54.09-.36.14-.77.14-1.23h.26c0,.53-.03.95-.1,1.26-.06.31-.23.64-.48.98-.26.34-.63.61-1.1.82-.48.21-1,.31-1.56.31-.87,0-1.57-.25-2.09-.75-.52-.5-.84-1.16-.97-1.97-.12-.81-.22-1.5-.3-2.06-.12-.62-.27-.99-.47-1.09-.19-.1-.4-.16-.63-.17-.23-.01-.45-.02-.68-.02Zm1.29-.34c.41-.06.72-.36.93-.89.21-.53.31-1.11.31-1.76,0-.53-.11-1.04-.32-1.56-.22-.51-.47-.81-.77-.89-.3-.09-.57-.13-.81-.15-.24-.01-.45-.02-.63-.03v5.32h.55c.3,0,.55-.02.74-.05Z"/>
        <path class="cls-1" d="m22.73,12.96c-.3.81-.79,1.44-1.45,1.89-.67.46-1.45.69-2.36.69-1.27,0-2.32-.35-3.13-1.06-.82-.7-1.23-1.68-1.23-2.93,0-1.16.42-2.11,1.27-2.86.85-.75,1.86-1.12,3.04-1.12s2.19.35,2.84,1.05c.66.7.99,1.55.99,2.56h-4.95c0,.39.03.78.09,1.18s.17.79.34,1.17c.17.38.4.68.7.91.3.23.69.35,1.14.35.66,0,1.18-.19,1.56-.56.38-.37.68-.84.88-1.39l.26.11Zm-2.85-2.1c-.01-.12-.02-.26-.02-.42s0-.37,0-.61c0-.66-.08-1.15-.24-1.49-.16-.34-.44-.51-.83-.51-.34,0-.58.16-.71.49-.13.33-.23.83-.28,1.51l-.03,1.03h2.13Z"/>
        <path class="cls-1" d="m27.08,11.94c.57-.58,1.13-1.16,1.7-1.75.57-.59.96-1.02,1.18-1.29.22-.27.33-.47.33-.61,0-.09-.03-.15-.1-.18-.07-.04-.17-.06-.3-.07l-.55-.03v-.26h3.05v.26c-.11,0-.21,0-.32,0-.1,0-.24.03-.42.06s-.33.09-.45.16c-.12.07-.29.21-.53.41-.23.2-.43.39-.6.56-.17.17-.32.33-.46.48.53.86,1.06,1.73,1.61,2.61.55.88.95,1.52,1.2,1.9.25.38.44.62.56.72.12.1.29.16.51.19l.39.02v.26h-5.46v-.26l.32-.02c.28,0,.42-.09.42-.26,0-.11-.07-.28-.22-.53-.14-.25-.37-.61-.66-1.08-.3-.47-.59-.92-.86-1.35l-.3.32v1.16l.02.74c0,.42.03.69.09.81.06.12.24.18.54.18l.3.02v.26h-5.1v-.26l.37-.02c.31-.03.5-.11.56-.23.06-.12.1-.38.1-.77l.02-.74v-7.96l-.02-.66c0-.29-.05-.49-.14-.6-.09-.11-.29-.19-.59-.22l-.61-.03v-.26h4.47v7.24l-.03,1.06Z"/>
        <path class="cls-1" d="m41.93,11.56c0,1.14-.43,2.09-1.3,2.85-.87.76-1.88,1.14-3.05,1.14-1.24,0-2.27-.38-3.1-1.14-.83-.76-1.25-1.71-1.25-2.85s.42-2.09,1.27-2.85c.84-.76,1.87-1.14,3.09-1.14s2.22.38,3.07,1.13c.85.75,1.28,1.7,1.28,2.85Zm-3.21-.02c0-.15-.01-.45-.03-.9-.02-.45-.03-.72-.03-.81,0-.58-.09-1.06-.27-1.43-.18-.38-.45-.56-.83-.56-.34,0-.61.2-.79.59-.18.39-.27.86-.27,1.41,0,.2,0,.45-.02.75-.02.3-.03.62-.04.96,0,.15.01.46.03.93.02.47.03.74.03.81,0,.58.09,1.06.27,1.43.18.38.45.56.81.56s.62-.19.81-.58c.18-.39.27-.86.27-1.42,0-.21,0-.47.02-.77.01-.3.03-.62.05-.98Z"/>
        <path class="cls-1" d="m47.54,15.38h-5.24v-.26l.39-.02c.31-.03.5-.11.57-.23.06-.12.1-.38.1-.77l.02-.74v-7.96l-.02-.66c-.02-.26-.05-.45-.1-.58-.04-.13-.24-.21-.58-.24l-.55-.03v-.26h4.35v9.74l.02.74c0,.39.03.64.1.77.06.12.25.2.56.23l.39.02v.26Z"/>
        <path class="cls-1" d="m48.66,8.35h-1.1v-.44c.37-.1.75-.28,1.15-.54.4-.26.78-.57,1.14-.92.36-.35.66-.69.91-1.02.24-.33.43-.63.56-.9h.45v3.21h2.1l-.22.61h-1.87v4.38l.03.82c0,.46.1.81.3,1.05.2.24.46.35.77.35.42,0,.72-.17.91-.52.19-.35.29-.74.29-1.17h.23c0,.6-.18,1.13-.53,1.59-.35.46-1.11.69-2.28.69-.75,0-1.41-.19-1.98-.58-.57-.39-.86-.93-.86-1.63v-4.98Z"/>
      </g>
      <g>
        <path class="cls-1" d="m59.57,11.42c-.78,0-1.79.09-2.29.22.04,2.7.22,5.4.43,8.08.04.35-.13.43-.37.35-.71-.35-1.6-1.84-1.81-2.98-.26-1.21-.37-2.94-.41-4.36-.24.06-.52.24-.71.41-.02.06-.09.17-.17.22-.11.02-.15-.09-.19-.28-.02-.39-.02-.84.13-1.21.15-.35.5-.73.8-.84-.09-2.03-.13-4.12-.02-6.05.04-.95.97-1.94,1.88-2.05.15,0,.24.06.3.28.09.24.06,2.01.06,2.7.02,1.43.02,2.81.06,4.23.32-.04.76-.04,1.21-.04.69,0,1.43.04,1.9.17,0-3-.3-5.96-.8-8.94-.02-.24-.28-.78-.28-.93,0-.24.09-.39.3-.39,1.68,0,2.41,1.14,2.74,3.07.56,2.87.94,5.53.94,8.49,0,2.31-.31,8.42-1.24,10.25-.78,1.49-1.83,2.35-2.69,2.35-.28,0-.6-.13-.6-.52,0-.35.39-.89.48-1.34.73-3.11,1.14-7.13,1.14-10.84-.19-.02-.48-.04-.78-.04Z"/>
        <path class="cls-1" d="m70.25,6.82c-.58,0-1.12.06-1.62.19-.13,4.36.28,9.33.69,12.83.13,1.21-1.45,1.55-1.71,1.68-.11.04-.24.06-.37.06-.24,0-.48-.11-.54-.41-1.01-4.64-.52-10.39.93-13.91-1.04.43-1.94,1.08-2.83,2.09-.22.24-.37.43-.63.35-.22-.09-.28-.82-.3-1.04-.11-1.32.22-2.68.86-3.33.97-1.06,3.69-2.94,5.16-2.94.35,0,.65.13.86.32.67.71,1.27,2.72,1.19,3.84-.02.3-.15.35-.43.32-.45-.04-.86-.09-1.27-.09Z"/>
      </g>
    </g>
  </g>
</svg>